<svg width="116" height="88" viewBox="0 0 116 88" fill="none" xmlns="http://www.w3.org/2000/svg">
<path d="M93.966 74.5022V80.0214C93.966 81.7575 93.966 81.7358 92.2372 81.7719C91.6802 81.7719 91.4777 81.6562 91.5138 81.0486C91.5138 77.4318 91.5138 73.8729 91.5138 70.2851C91.5138 69.8076 91.644 69.6991 92.1431 69.6196C93.5899 69.3953 94.4507 69.9668 95.1451 71.2616C96.1578 73.1568 97.4019 74.929 98.5521 76.7518C98.6172 76.8604 98.6967 76.9544 98.8703 77.1931C98.8703 76.8025 98.9282 76.5493 98.9282 76.3034C98.9282 74.3069 98.9282 72.3177 98.9282 70.3212C98.9282 69.7425 99.1091 69.5979 99.6516 69.6413C100.194 69.6847 100.932 69.4098 101.294 69.7642C101.655 70.1187 101.424 70.8782 101.431 71.4496C101.431 74.6396 101.431 77.8296 101.431 81.0124C101.431 81.5622 101.315 81.7792 100.708 81.7358C98.7619 81.7358 98.7763 81.7358 97.7491 80.0865C96.5701 78.1913 95.3621 76.3106 94.1324 74.4226L93.966 74.5022Z" fill="#03934D"/>
<path d="M112.318 18.348C111.717 20.1492 111.11 21.9648 110.516 23.7515C110.401 24.0915 110.307 24.3447 109.851 24.3302C109.395 24.3157 109.345 24.0915 109.236 23.766C108.701 22.1167 108.151 20.4747 107.601 18.8255C107.543 18.6148 107.431 18.4229 107.276 18.2685C107.276 20.0913 107.276 21.8853 107.276 23.7443C107.276 24.0843 107.276 24.3447 106.791 24.3302C106.306 24.3157 106.285 24.1132 106.292 23.7443C106.292 21.5742 106.292 19.4692 106.292 17.3281C106.292 16.8796 106.379 16.6916 106.907 16.6626C107.63 16.6192 107.912 16.8652 108.115 17.5524C108.643 19.3463 109.272 21.1185 109.923 23.086C110.415 21.6393 110.849 20.33 111.276 19.0425C111.5 18.3914 111.717 17.7332 111.927 17.0749C112.137 16.4167 112.737 16.7422 113.157 16.7133C113.576 16.6843 113.424 17.1039 113.424 17.3209C113.424 19.4909 113.424 21.5959 113.424 23.737C113.424 24.0915 113.424 24.3302 112.932 24.3302C112.441 24.3302 112.433 24.1204 112.44 23.7515C112.44 21.9504 112.44 20.1347 112.44 18.348H112.318Z" fill="#03934D"/>
<path d="M102.877 20.9089C102.877 21.8493 102.877 22.7969 102.877 23.7372C102.877 24.0844 102.877 24.3231 102.392 24.3304C101.907 24.3376 101.879 24.0772 101.886 23.7083C101.886 21.9433 101.886 20.1831 101.886 18.4278C101.886 17.3934 101.965 17.6032 101.068 17.5815C100.692 17.5815 100.316 17.5815 99.94 17.5815C99.6579 17.5815 99.4119 17.6176 99.4264 17.1836C99.4409 16.7496 99.5277 16.6773 99.9255 16.6773C101.56 16.6773 103.195 16.6773 104.823 16.6773C105.163 16.6773 105.365 16.7279 105.365 17.1475C105.365 17.567 105.163 17.5887 104.859 17.5742C104.555 17.5598 104.135 17.5742 103.788 17.5742C102.877 17.5742 102.877 17.5742 102.877 18.4495V20.9017V20.9089Z" fill="#03934D"/>
<path d="M99.9253 86.2205C100.236 85.6635 100.511 85.2223 100.728 84.7738C100.945 84.3253 101.249 84.3904 101.567 84.4411C101.886 84.4917 101.755 84.81 101.755 85.0053C101.755 85.9601 101.755 86.9149 101.755 87.8987C100.584 87.414 101.249 86.452 100.967 85.6346C100.721 86.0614 100.518 86.423 100.294 86.7775C100.07 87.1319 99.7662 87.1681 99.513 86.7775C99.3138 86.4074 99.071 86.0626 98.7897 85.7503C98.7897 86.1988 98.7897 86.6473 98.7897 87.0958C98.7897 87.4213 98.6595 87.4791 98.3774 87.4864C98.0953 87.4936 98.0518 87.3345 98.0518 87.103C98.0518 86.3796 98.0518 85.6563 98.0518 84.9329C98.0518 84.7449 97.8638 84.4266 98.2327 84.3832C98.6016 84.3398 98.8837 84.2891 99.0718 84.7159C99.2598 85.1427 99.6071 85.6708 99.9253 86.2205Z" fill="#040404"/>
<path d="M106.648 85.8444C106.648 86.2639 106.648 86.669 106.648 87.0813C106.648 87.3489 106.648 87.5008 106.286 87.5008C105.925 87.5008 105.917 87.32 105.917 87.0596C105.917 86.3362 105.917 85.6129 105.917 84.8895C105.917 84.7159 105.794 84.4772 106.04 84.3904C106.16 84.3538 106.288 84.3557 106.406 84.396C106.524 84.4362 106.627 84.5128 106.699 84.6147C107.133 85.1138 107.596 85.584 108.088 86.112C108.254 85.4682 108.001 84.8606 108.247 84.3253C108.341 84.13 108.623 84.0287 108.89 83.819C108.89 84.9836 108.89 86.0469 108.89 87.103C108.89 87.226 108.941 87.3779 108.775 87.4285C108.676 87.4638 108.57 87.4697 108.468 87.4452C108.367 87.4208 108.275 87.3672 108.203 87.2911C107.842 86.9077 107.48 86.5315 107.118 86.1554C107.01 86.0614 106.93 85.8661 106.648 85.8444Z" fill="#040404"/>
<path d="M56.1482 85.4176C56.4593 85.8299 56.2278 86.2929 56.2712 86.7269C56.2712 86.8715 56.1554 86.9294 56.0108 86.9366H55.6346H10.0632H9.68708C9.67752 86.9193 9.6718 86.9002 9.67031 86.8805C9.66883 86.8608 9.67161 86.841 9.67848 86.8224C9.68534 86.8039 9.69613 86.787 9.7101 86.773C9.72407 86.7591 9.74089 86.7482 9.75942 86.7413C10.5404 86.6089 11.3339 86.5652 12.1248 86.6111C13.123 86.6111 14.1212 86.6111 15.1195 86.6111C16.1177 86.6111 17.2895 86.6111 18.4035 86.6111C19.2643 86.6545 20.1251 86.6111 20.9787 86.6111H54.4266C54.6798 86.6111 54.933 86.6111 55.15 86.6111C55.6708 86.6111 55.9384 86.4158 55.9312 85.8878C55.9549 85.7129 56.0305 85.5491 56.1482 85.4176Z" fill="#7D7D7D"/>
<path d="M67.824 86.7341C67.6069 87.5443 67.1006 87.5009 66.5147 87.4575C65.1331 87.4575 65.1331 87.4575 65.1403 86.0831C65.1365 86.0205 65.1365 85.9577 65.1403 85.895C65.1403 85.3959 64.9161 84.7232 65.2488 84.4483C65.5816 84.1734 66.2109 84.3687 66.6955 84.3543H67.9035C67.701 84.933 67.3899 85.2151 66.8113 85.121C66.602 85.0993 66.3912 85.0993 66.1819 85.121C66.03 85.121 65.8275 85.0559 65.842 85.3453C65.8564 85.6346 66.0517 85.555 66.2109 85.555H67.5274C67.3465 86.2784 66.8619 86.1771 66.3989 86.1844C66.1819 86.1844 65.8203 86.0397 65.8492 86.4737C65.8781 86.9077 66.2109 86.669 66.4062 86.6763C66.8836 86.7558 67.3393 86.7341 67.824 86.7341Z" fill="#040404"/>
<path d="M115.148 85.6202C114.931 86.3435 114.425 86.2278 113.947 86.235C113.745 86.235 113.434 86.1193 113.455 86.5171C113.477 86.915 113.767 86.7269 113.947 86.7341C114.418 86.7341 114.895 86.7341 115.43 86.7341C115.228 87.2911 114.938 87.566 114.352 87.4575C113.767 87.349 113.166 87.6673 112.841 87.3418C112.515 87.0163 112.739 86.3435 112.739 85.83C112.739 84.3832 112.739 84.3832 114.186 84.3832H115.488C115.351 85.2585 114.721 85.1066 114.143 85.1572C113.926 85.1572 113.506 84.9258 113.492 85.3453C113.477 85.7648 113.904 85.5623 114.135 85.584C114.472 85.614 114.81 85.626 115.148 85.6202Z" fill="#040404"/>
<path d="M83.2176 85.6202C83.0874 86.0397 82.8704 86.264 82.4437 86.235C82.2339 86.235 82.0241 86.235 81.8143 86.235C81.6046 86.235 81.5612 86.3218 81.5612 86.5027C81.5612 86.6835 81.6552 86.7558 81.836 86.7558H83.5287C83.3117 87.2477 83.0947 87.566 82.5232 87.4792C81.9518 87.3924 81.2501 87.66 80.9463 87.3852C80.6425 87.1103 80.8378 86.3218 80.8306 85.7576C80.8306 84.3832 80.8306 84.3832 82.2266 84.3832H83.5793C83.4346 85.1066 82.9572 85.1717 82.3713 85.1572C82.1109 85.1572 81.6046 84.933 81.6046 85.3381C81.6046 85.7431 82.1181 85.5261 82.4002 85.584C82.671 85.6218 82.9446 85.6339 83.2176 85.6202Z" fill="#040404"/>
<path d="M73.9454 87.877C73.7935 87.3779 74.0973 86.7919 73.6343 86.3435C73.4318 86.1482 73.3161 86.018 73.128 86.3435C72.9399 86.669 72.5999 86.8209 72.6216 87.2477C72.6433 87.6744 72.3612 87.4936 72.1659 87.5081C71.9706 87.5225 71.8838 87.4068 71.891 87.2043C71.891 86.3724 71.891 85.5333 71.891 84.6942C71.891 84.3904 72.0791 84.4338 72.2672 84.4266C72.4553 84.4193 72.6433 84.4266 72.6361 84.7159C72.6289 85.0053 72.6361 85.3814 72.6361 85.7575C73.3595 85.3959 73.4824 84.1662 74.5892 84.4555C74.5892 84.4555 74.5892 84.5423 74.5892 84.5495C73.8658 85.1716 73.7718 85.7431 74.5024 86.4881C74.9581 86.9294 74.6687 87.5298 73.9454 87.877Z" fill="#040404"/>
<path d="M5.30474 86.9149C3.85803 86.9149 2.41132 86.9149 0.913971 86.9149C0.781466 86.9281 0.647741 86.9092 0.524038 86.86C0.400334 86.8107 0.290266 86.7324 0.203086 86.6318C0.115905 86.5311 0.0541595 86.411 0.0230386 86.2816C-0.00808224 86.1521 -0.0076684 86.0171 0.0242445 85.8878C0.0676458 85.5333 0.320819 85.4176 0.653563 85.4176H3.44572C3.57056 85.5325 3.64796 85.6898 3.66272 85.8588C3.66272 86.5822 4.0895 86.6618 4.66095 86.6328C4.89243 86.6184 5.19624 86.5533 5.30474 86.9149Z" fill="#DBDBDB"/>
<path d="M15.1284 86.7848H12.1265C11.9947 86.4763 11.9693 86.1328 12.0542 85.8082C11.7648 85.8082 11.4465 85.9167 11.1934 85.5551C11.9167 85.367 12.6401 85.5985 13.3634 85.4176C15.2948 85.367 17.2261 85.3453 19.1503 85.4176C19.1606 85.4341 19.1676 85.4526 19.1706 85.4718C19.1737 85.4911 19.1729 85.5108 19.1681 85.5297C19.1634 85.5486 19.1549 85.5664 19.1431 85.5819C19.1314 85.5975 19.1166 85.6105 19.0996 85.6202C18.2274 85.7394 17.3458 85.7758 16.4666 85.7287C15.8642 85.6108 15.249 85.5719 14.6365 85.6129C14.9837 85.6129 15.3599 85.6129 15.6782 85.6129C15.9964 85.6129 16.0543 85.7359 15.9603 86.0252C15.8978 86.2122 15.7886 86.3801 15.643 86.513C15.4974 86.646 15.3203 86.7395 15.1284 86.7848Z" fill="#2C2C2C"/>
<path d="M90.2489 85.6129C90.0681 86.2856 89.5979 86.2712 89.135 86.2205C88.672 86.1699 88.4984 86.3435 88.549 86.8209C88.571 87.1847 88.571 87.5494 88.549 87.9132C88.3188 87.861 88.1167 87.7242 87.9827 87.5299C87.8487 87.3356 87.7926 87.098 87.8257 86.8643C87.8763 86.141 87.8257 85.4827 87.8257 84.7955C87.8257 84.5134 87.898 84.3904 88.2091 84.3977C88.9975 84.3977 89.7932 84.3977 90.6178 84.3977C90.4225 84.9691 90.097 85.2512 89.5039 85.1644C89.2752 85.1463 89.0454 85.1463 88.8167 85.1644C88.6792 85.1644 88.5563 85.1644 88.549 85.3525C88.5418 85.5406 88.6431 85.6129 88.8167 85.6129H90.2489Z" fill="#040404"/>
<path d="M19.1348 85.5333C19.1386 85.4924 19.1386 85.4513 19.1348 85.4104C20.1402 85.4104 21.1457 85.4104 22.1512 85.4104C33.2764 85.4104 44.3992 85.4104 55.5195 85.4104C55.7221 85.4104 55.9319 85.4104 56.1416 85.4104V85.7793C44.3365 85.6852 32.5313 85.7793 20.7334 85.7286C20.1933 85.8361 19.6331 85.7677 19.1348 85.5333Z" fill="#040404"/>
<path d="M5.30593 86.9149C4.91443 86.7748 4.49352 86.7374 4.08346 86.8064C3.69285 86.8064 3.50477 86.7052 3.52647 86.2784C3.515 85.9889 3.4787 85.7009 3.41797 85.4176H6.43436C6.45848 85.4526 6.47566 85.4919 6.485 85.5333C6.73094 86.6256 6.73094 86.6184 7.89554 86.6256C8.33679 86.6256 8.77803 86.6256 9.21205 86.6256C9.30103 86.6197 9.39026 86.6328 9.47381 86.6639C9.55736 86.6951 9.63334 86.7437 9.69669 86.8064V86.9077L5.30593 86.9149Z" fill="#DBDBDB"/>
<path d="M112.225 84.4627C112.015 85.1861 111.501 85.2367 110.923 85.1861C110.344 85.1355 110.055 85.2729 110.199 85.9095C110.221 86.0557 110.221 86.2044 110.199 86.3507C110.156 86.6762 110.286 86.7992 110.619 86.7775C111.111 86.7775 111.61 86.7775 112.167 86.7775C111.964 87.3055 111.718 87.6021 111.125 87.5008C110.532 87.3996 109.953 87.6527 109.621 86.9439C109.402 86.2284 109.448 85.4579 109.751 84.7738C109.821 84.6596 109.922 84.5673 110.043 84.5073C110.163 84.4472 110.297 84.4218 110.431 84.4338C110.995 84.4338 111.559 84.4338 112.123 84.4338C112.158 84.4406 112.192 84.4503 112.225 84.4627Z" fill="#040404"/>
<path d="M9.23161 86.7992C8.42145 86.7992 7.60406 86.7992 6.79391 86.7992C6.4901 86.7992 6.30202 86.7992 6.44669 86.3797C6.59137 85.9601 6.20075 85.7431 6.44669 85.4248H9.84646C9.74519 85.8227 9.43415 85.6491 9.24608 85.6563C9.32661 85.7286 9.39075 85.8173 9.43422 85.9164C9.47768 86.0156 9.49945 86.1228 9.49808 86.231C9.49671 86.3393 9.47223 86.4459 9.42627 86.5439C9.38031 86.6419 9.31395 86.729 9.23161 86.7992Z" fill="#BCBCBC"/>
<path d="M9.23387 86.7992C9.3496 86.4014 9.46534 86.0035 9.1543 85.6563C9.38577 85.4393 9.69681 85.6563 9.87765 85.4176C11.0495 85.4176 12.2286 85.3381 13.4004 85.4176C12.7494 85.6997 12.055 85.4176 11.3967 85.6419H12.489C11.8886 85.9746 12.489 86.4665 12.1562 86.7848H9.74022L9.23387 86.7992Z" fill="#515151"/>
<path d="M57.9311 84.9475C58.9944 84.7016 59.5948 85.4611 60.2892 86.0326C60.5351 86.2279 60.3326 86.3075 60.2241 86.4015C59.8624 86.7198 59.5007 87.0308 59.1391 87.3346C58.7774 87.6384 58.054 87.501 57.9238 87.2189C58.0681 86.9636 58.2778 86.7513 58.5314 86.604C58.9293 86.3292 58.9799 86.1194 58.5314 85.8083C58.2638 85.5696 57.9455 85.3454 57.9311 84.9475Z" fill="#040404"/>
<path d="M57.2286 86.1772C57.24 86.3839 57.2205 86.5912 57.1707 86.7921C57.0839 87.0019 56.838 86.8789 56.6644 86.8934C56.4908 86.9078 56.4112 86.7921 56.4184 86.6185C56.4257 86.4449 56.4184 86.1194 56.4184 85.8951C56.4184 85.6709 56.4184 85.3888 56.8163 85.3888C57.2141 85.3888 57.2503 85.5913 57.2286 85.8879C57.2213 85.953 57.2286 86.0326 57.2286 86.1772Z" fill="#040404"/>
<path d="M57.4149 85.4177C57.9647 85.2514 58.1889 85.4756 58.1383 86.0254C58.1383 86.3292 58.2757 86.6981 57.9213 86.9296C57.5451 86.9657 57.3498 86.8355 57.4005 86.416C57.4511 85.9964 57.4077 85.7505 57.4149 85.4177Z" fill="#303030"/>
<path fill-rule="evenodd" clip-rule="evenodd" d="M56.5259 66.7912H27.8304C27.2806 66.7912 26.984 66.69 27.107 66.0679C27.1215 65.9623 27.1215 65.8552 27.107 65.7496C26.9623 64.491 27.0347 63.3698 28.5537 62.9213C28.995 62.7911 29.2771 62.3426 29.4941 61.9448C30.174 60.8453 29.7907 59.9121 28.5465 59.6228L28.5453 59.6225L28.5453 59.6225C28.1082 59.5195 27.8931 59.4687 27.8124 59.3362C27.7342 59.2079 27.782 59.0028 27.8761 58.5991L27.8955 58.5161C28.165 57.3723 28.2553 56.1937 28.1631 55.0222C28.0468 54.3909 27.742 53.8097 27.2887 53.3552C26.8355 52.9006 26.2551 52.5941 25.6241 52.476C25.383 52.4527 25.1562 52.3509 24.9785 52.1863C24.8008 52.0217 24.682 51.8033 24.6404 51.5646C24.1456 49.8654 23.5863 48.1838 23.0259 46.4987L23.0259 46.4986L23.0259 46.4986L23.0259 46.4984L22.8392 45.9369C22.5653 45.0984 21.9934 44.45 21.4271 43.8081C21.2606 43.6193 21.0946 43.4311 20.9368 43.2388C19.418 41.4011 17.8993 39.5882 16.3806 37.7754L16.3805 37.7753L16.3804 37.7751L16.3796 37.7742C15.7286 36.9971 15.0776 36.22 14.4266 35.441C14.4015 35.4121 14.3708 35.3817 14.3396 35.3507C14.2534 35.2652 14.1628 35.1753 14.1734 35.101C14.2583 34.4673 13.8785 34.2187 13.484 33.9604C13.3741 33.8885 13.2631 33.8158 13.1607 33.7339C12.7859 33.4745 12.4987 33.1073 12.3373 32.681C12.1758 32.2547 12.1476 31.7895 12.2565 31.3468C12.3409 30.8671 12.5696 30.4244 12.9121 30.0781C13.2546 29.7317 13.6946 29.498 14.1734 29.4082C14.4763 29.3677 14.7841 29.3878 15.0792 29.4672C15.3742 29.5466 15.6506 29.6838 15.8921 29.8709C16.1337 30.058 16.3357 30.2912 16.4865 30.557C16.6372 30.8227 16.7337 31.1158 16.7703 31.4192V32.4897C16.7703 33.2131 16.9366 33.3795 17.6817 33.148C18.6787 32.7749 19.63 32.2895 20.5172 31.7013C22.3618 30.6235 24.1919 29.5312 25.9496 28.3232C28.1432 26.7427 29.7368 24.4658 30.4706 21.8636C30.7065 21.1251 30.8783 20.3676 30.9842 19.5995C31.0107 19.5261 31.0213 19.4478 31.0152 19.3699C31.0091 19.292 30.9865 19.2164 30.9488 19.1479C30.9112 19.0795 30.8594 19.0198 30.7969 18.973C30.7344 18.9261 30.6626 18.8931 30.5863 18.8762C30.2074 18.707 29.8693 18.4582 29.5949 18.1468C29.3206 17.8354 29.1165 17.4686 28.9964 17.0713C28.8763 16.674 28.8431 16.2556 28.899 15.8444C28.955 15.4331 29.0987 15.0387 29.3205 14.688C29.5408 14.3639 29.8314 14.0938 30.1707 13.8977C30.5099 13.7016 30.8891 13.5846 31.2798 13.5554C31.6706 13.5262 32.0629 13.5855 32.4275 13.729C32.7921 13.8725 33.1197 14.0965 33.3857 14.3841C34.3189 15.4909 34.5648 17.1401 33.3857 18.1022C33.1543 18.2975 33.2555 18.4711 33.3857 18.6447C35.6932 21.3862 38.319 23.6503 42.066 24.2073C42.2821 24.2412 42.5031 24.2255 42.7124 24.1616C42.9216 24.0977 43.1136 23.9872 43.274 23.8384C45.0806 22.2489 46.7592 20.5196 48.2941 18.6664C51.0244 15.3509 53.2855 11.6756 55.0141 7.74374C55.2528 7.23016 55.354 6.94081 54.6813 6.5936C54.2701 6.36454 53.9088 6.05553 53.6188 5.68478C53.3288 5.31403 53.1158 4.88901 52.9925 4.43473C52.8691 3.98046 52.8379 3.5061 52.9006 3.03958C52.9633 2.57305 53.1187 2.12377 53.3576 1.71819C53.5817 1.32771 53.8807 0.985309 54.2374 0.710613C54.5942 0.435916 55.0016 0.234326 55.4364 0.117398C55.8712 0.000470486 56.3247 -0.0294958 56.7711 0.0292173C57.2175 0.0879305 57.6479 0.234168 58.0377 0.459548C58.64 0.800021 59.1273 1.31198 59.4378 1.93028C59.7482 2.54858 59.8677 3.24525 59.781 3.93165C59.7373 4.6075 59.488 5.25383 59.0665 5.78394C58.645 6.31405 58.0715 6.70258 57.4228 6.89741C57.0973 7.00592 57.0033 7.12889 57.1624 7.43269C59.7448 12.4311 62.5876 17.2559 66.566 21.3139C67.4432 22.1821 68.389 22.9779 69.3944 23.6937C69.7338 23.9328 70.1234 24.091 70.5334 24.1562C70.9434 24.2214 71.3629 24.1919 71.7597 24.0699C74.4235 23.4294 76.8103 21.9482 78.5665 19.8455C78.5973 19.8119 78.627 19.7751 78.6573 19.7375C78.7053 19.678 78.7548 19.6166 78.8125 19.5634C79.5358 18.8979 79.9987 18.312 79.3477 17.2052C79.0792 16.7366 78.987 16.1875 79.0879 15.6569C79.1887 15.1263 79.4758 14.6493 79.8975 14.3118C80.2827 13.9185 80.7813 13.6554 81.3235 13.5594C81.8656 13.4634 82.4242 13.5393 82.9211 13.7765C83.1807 13.9144 83.4083 14.1055 83.589 14.3374C83.7698 14.5692 83.8996 14.8366 83.97 15.122C84.2704 15.8244 84.2808 16.6172 83.999 17.3273C83.7171 18.0374 83.1658 18.6072 82.4654 18.9123C82.1905 19.0425 82.0603 19.18 82.111 19.4766C82.6245 22.5725 83.7819 25.3647 86.1473 27.513C87.3274 28.4826 88.5937 29.3422 89.9304 30.081C90.0714 30.1658 90.2124 30.2506 90.3534 30.3354C90.4976 30.4221 90.6417 30.5087 90.7858 30.5953L90.7898 30.5977L90.7906 30.5982L90.7906 30.5982L90.7911 30.5985C91.9938 31.3213 93.1948 32.0431 94.3863 32.7791C94.7455 32.9932 95.1232 33.1747 95.5147 33.3216C96.0862 33.5458 96.2381 33.4301 96.1802 32.8008C96.1453 32.4474 96.1284 32.0925 96.1296 31.7374C96.1084 31.2085 96.2813 30.6901 96.6157 30.2798C96.9501 29.8695 97.4229 29.5955 97.9452 29.5095C98.4502 29.3902 98.9808 29.448 99.4482 29.6732C99.9157 29.8983 100.292 30.2772 100.513 30.7464C100.727 31.2293 100.776 31.7691 100.654 32.2828C100.531 32.7964 100.242 33.2555 99.8332 33.5892C99.363 33.8931 99.0206 34.359 98.8711 34.8985C98.7481 35.3545 98.3784 35.7488 98.0086 36.1431C97.8563 36.3055 97.7041 36.4679 97.5691 36.6346C95.3363 39.3688 93.0963 42.1031 90.8491 44.8374C90.6468 45.1032 90.497 45.4052 90.4078 45.7271C90.1162 46.671 89.82 47.6133 89.5242 48.5548C89.167 49.6915 88.8102 50.827 88.462 51.9625C88.4439 52.106 88.37 52.2366 88.2562 52.3259C88.1425 52.4153 87.9981 52.4562 87.8544 52.4399C87.2396 52.4162 86.6354 52.6045 86.1429 52.9732C85.6504 53.342 85.2995 53.8687 85.149 54.4653C84.8893 55.1764 84.7735 55.932 84.8083 56.6882C84.843 57.4444 85.0277 58.1862 85.3516 58.8705C85.5252 59.2322 85.4312 59.3262 85.0912 59.413C84.7689 59.5082 84.4584 59.6393 84.1653 59.8036C83.9778 59.8763 83.8094 59.9909 83.6731 60.1387C83.5368 60.2865 83.4361 60.4636 83.3788 60.6563C83.3216 60.8491 83.3092 61.0524 83.3427 61.2506C83.3762 61.4489 83.4547 61.6369 83.5721 61.8001C83.9614 62.5052 84.5749 63.0601 85.3154 63.377C85.5751 63.4576 85.7944 63.6341 85.9288 63.8706C86.0631 64.107 86.1024 64.3857 86.0388 64.6501C85.9858 65.2151 85.9689 65.7829 85.9881 66.35C85.9881 66.6755 85.8796 66.8202 85.5541 66.784C85.4264 66.7768 85.2984 66.7768 85.1707 66.784L56.5259 66.7912ZM66.0898 24.4388H69.5475C69.7973 24.4357 70.0452 24.4842 70.2754 24.5813C70.5057 24.6784 70.7134 24.822 70.8857 25.0031C71.1126 25.2042 71.3387 25.4062 71.565 25.6083C72.2908 26.2565 73.0181 26.9062 73.7791 27.5348C73.8902 27.6168 73.977 27.7274 74.0305 27.8547C74.084 27.982 74.1021 28.1214 74.0829 28.2582C73.9093 32.9696 73.7333 37.6811 73.5548 42.3925C73.5484 42.5804 73.4909 42.763 73.3885 42.9206C72.8335 43.8118 72.3498 44.7454 71.9418 45.7127C71.8843 45.8661 71.7764 45.9955 71.6357 46.0796C71.4951 46.1637 71.3301 46.1976 71.1678 46.1757H67.2038C66.8349 46.1757 66.683 46.0961 66.683 45.6983C66.683 45.1847 66.6685 44.6729 66.654 44.1611C66.6396 43.6494 66.6251 43.1376 66.6251 42.624C66.6251 42.19 66.466 42.0526 66.0681 42.1249H65.7498C65.5591 42.144 65.3503 42.1269 65.1429 42.1099C64.7209 42.0754 64.3045 42.0414 64.0572 42.313C63.8052 42.5897 63.8603 42.9946 63.916 43.4033C63.9418 43.5929 63.9677 43.7834 63.9632 43.9622C63.9535 44.3384 63.9567 44.7338 63.9599 45.1292C63.9615 45.3269 63.9632 45.5247 63.9632 45.72C63.9632 46.0382 63.8691 46.1757 63.5364 46.1684H60.3247C60.0136 46.1684 59.9051 46.0021 59.7822 45.7634C59.4585 44.9926 59.1902 44.1997 58.9792 43.3908C58.6469 42.2839 58.0987 41.2538 57.3661 40.3599C57.2635 40.2415 57.1968 40.0962 57.1737 39.9412C57.1506 39.7862 57.1722 39.6278 57.2359 39.4846C57.483 38.7265 57.7301 37.9683 57.9773 37.2101C59.2938 33.1723 60.6105 29.1336 61.9016 25.0899C61.9406 24.8614 62.068 24.6575 62.2561 24.5222C62.4442 24.3868 62.678 24.3309 62.9071 24.3665H66.1115L66.0898 24.4388ZM50.4217 24.4677H47.2172C45.918 24.4098 44.6168 24.4171 43.3183 24.4894C43.0055 24.4957 42.7053 24.6137 42.472 24.8222C41.44 25.7384 40.396 26.6402 39.3399 27.5275C39.2307 27.6123 39.1439 27.7226 39.0871 27.8487C39.0304 27.9748 39.0054 28.1129 39.0144 28.2509L39.0144 28.2511C39.0722 29.2348 39.1301 30.2185 39.1301 31.2022L39.5424 42.2695C39.5195 42.4681 39.5547 42.6691 39.6437 42.8482C40.2374 43.763 40.7436 44.7318 41.1555 45.7416C41.1999 45.8758 41.2904 45.9901 41.4108 46.0642C41.5312 46.1383 41.6739 46.1675 41.8137 46.1467H45.8356C46.219 46.1539 46.3564 46.0454 46.3564 45.662C46.3598 45.1787 46.376 44.6953 46.3923 44.2119C46.4105 43.6681 46.4288 43.1243 46.4288 42.5806C46.4288 42.2189 46.5156 42.038 46.9206 42.0742C47.4637 42.1296 48.0098 42.1489 48.5554 42.1321C49.0184 42.1104 49.1052 42.3057 49.1052 42.718V45.6114C49.0979 46.0093 49.2137 46.1612 49.6405 46.1612H51.4633C53.3513 46.1612 53.3657 46.1612 53.8214 44.3094C54.0965 43.0179 54.6385 41.7983 55.4128 40.7288C55.6164 40.4863 55.7469 40.191 55.7892 39.8773C55.8315 39.5635 55.7837 39.2442 55.6515 38.9565C54.118 34.3343 52.6279 29.6904 51.145 25.0464C51.0293 24.6413 50.8557 24.4677 50.4217 24.4677ZM31.5773 47.1015H26.9261C26.7507 47.1103 26.5754 47.0842 26.4102 47.0246C26.245 46.965 26.0934 46.8731 25.9641 46.7543C25.2484 46.1096 24.5213 45.5108 23.7877 44.9068L23.7877 44.9067L23.5191 44.6855C23.2449 44.4601 23.054 44.1494 22.9766 43.803C22.1472 40.6443 21.3129 37.4809 20.4738 34.3126C20.4205 34.1795 20.4192 34.0313 20.4702 33.8973C20.5211 33.7633 20.6205 33.6533 20.7487 33.5892C22.7692 32.239 24.7729 30.8718 26.7598 29.4878C27.381 29.06 28.0307 29.1545 28.6743 29.2481L28.6744 29.2481C28.8251 29.27 28.9755 29.2919 29.1251 29.307C29.2433 29.307 29.3534 29.4864 29.4556 29.6528L29.4556 29.6528C29.4911 29.7105 29.5256 29.7667 29.5591 29.8133L36.2863 39.4412C36.5266 39.7823 36.7668 40.1242 37.007 40.466L37.0094 40.4695C37.4917 41.156 37.9741 41.8426 38.4564 42.5227C38.5529 42.6318 38.6142 42.7675 38.6323 42.9121C38.6503 43.0566 38.6243 43.2033 38.5577 43.3328C38.0513 44.5047 37.5522 45.6765 37.0748 46.8628C36.9446 47.1955 36.7059 47.1955 36.4238 47.1955H31.5773V47.1015ZM77.2491 47.0219H81.7773L81.7556 46.9568H86.3489C86.7274 46.9707 87.0961 46.8356 87.3761 46.5807C88.0126 46.0164 88.6637 45.4522 89.3364 44.9242C89.7261 44.6399 89.9987 44.2232 90.1031 43.7523L90.2 43.3509C90.9273 40.3375 91.656 37.3184 92.4179 34.3125C92.4895 34.135 92.4921 33.9371 92.4252 33.7577C92.3582 33.5783 92.2266 33.4305 92.0562 33.3432C91.8206 33.1843 91.5852 33.0256 91.3499 32.867C89.808 31.8276 88.2737 30.7934 86.7612 29.7265C86.1458 29.2949 85.4151 29.0581 84.6635 29.0465C84.4816 29.0198 84.2958 29.0466 84.1288 29.1237C83.9618 29.2008 83.8209 29.3247 83.7232 29.4805C80.7574 33.7097 77.7772 37.9293 74.7825 42.1392C74.6564 42.2752 74.5793 42.4495 74.5636 42.6343C74.5479 42.8191 74.5944 43.0038 74.6957 43.1592C75.2816 44.2659 75.8675 45.3871 76.3956 46.5228C76.4561 46.6933 76.5749 46.837 76.7311 46.9283C76.8873 47.0196 77.0708 47.0528 77.2491 47.0219Z" fill="#03934D"/>
<path fill-rule="evenodd" clip-rule="evenodd" d="M72.8342 76.05C72.5262 75.7395 72.1558 75.4979 71.7474 75.3413C71.765 75.1712 71.8729 75.1057 71.9864 75.0369C72.0129 75.0209 72.0397 75.0046 72.0657 74.9868C72.6285 74.5268 72.9975 73.8718 73.0994 73.152C73.2013 72.4323 73.0285 71.7006 72.6154 71.1024C72.3152 70.6567 71.907 70.2942 71.4289 70.0489C70.9508 69.8035 70.4183 69.6832 69.8811 69.6991C68.7881 69.6629 67.6928 69.6603 66.5978 69.6576C65.7217 69.6554 64.8458 69.6533 63.9713 69.634C63.436 69.5906 63.3131 69.8076 63.3131 70.314V79.8116V81.3162C63.3058 81.5838 63.3637 81.7574 63.6892 81.7574C64.4349 81.7459 65.1814 81.7549 65.9278 81.7639C67.5274 81.7832 69.1272 81.8025 70.7202 81.62C71.2243 81.5613 71.7087 81.3902 72.1378 81.1194C72.567 80.8487 72.93 80.485 73.2 80.0554C73.47 79.6258 73.6401 79.141 73.698 78.6369C73.7558 78.1327 73.6998 77.6221 73.5341 77.1424C73.3808 76.7328 73.1422 76.3605 72.8342 76.05ZM67.7623 74.3431H66.3807C66.048 74.3431 65.9467 74.2346 65.9612 73.9091V72.3394C65.9612 71.9994 66.0335 71.8403 66.4097 71.8475C67.35 71.8475 68.2976 71.8475 69.238 71.9126C70.1783 71.9777 70.4966 72.3539 70.5038 73.07C70.5061 73.2383 70.4737 73.4053 70.4088 73.5606C70.3438 73.7159 70.2477 73.8563 70.1263 73.9729C70.0049 74.0895 69.8608 74.18 69.7031 74.2387C69.5453 74.2974 69.3772 74.3231 69.209 74.3142H67.7623V74.3431ZM67.9146 79.5079H66.4028C66.1062 79.5079 65.9398 79.4645 65.9543 79.1029V76.9328C65.9543 76.6868 65.9977 76.5422 66.2942 76.5494C67.4431 76.5095 68.5933 76.5458 69.7374 76.6579C70.0899 76.6928 70.415 76.8631 70.6444 77.133C70.8738 77.4028 70.9895 77.7512 70.9671 78.1046C70.9673 78.456 70.8308 78.7936 70.5864 79.0461C70.342 79.2985 70.009 79.446 69.6578 79.4573C69.2723 79.491 68.8836 79.4798 68.4938 79.4686C68.2985 79.4629 68.1029 79.4573 67.9073 79.4573L67.9146 79.5079Z" fill="#03934D"/>
<path fill-rule="evenodd" clip-rule="evenodd" d="M25.4235 80.6437C27.0005 79.4285 27.4706 77.678 27.4706 75.5802C27.5202 74.7531 27.4046 73.9245 27.1307 73.1425C26.787 72.0984 26.1295 71.1859 25.2478 70.5295C24.3662 69.8731 23.3034 69.5049 22.2046 69.4751C19.2823 69.2147 17.0182 70.307 15.9476 72.9255C15.5301 74.0523 15.3815 75.2611 15.5136 76.4555C15.6799 78.763 16.6782 80.5931 18.9133 81.4322C19.9691 81.8984 21.131 82.0712 22.2768 81.9325C23.4225 81.7937 24.5096 81.3485 25.4235 80.6437ZM24.0069 78.4229C24.5571 77.5982 24.8121 76.6115 24.7302 75.6235C24.7264 75.5401 24.723 75.4562 24.7196 75.3714C24.7103 75.1397 24.7008 74.9011 24.6796 74.647C24.6367 73.913 24.3335 73.2184 23.8243 72.6881C23.3152 72.1577 22.6335 71.8263 21.9019 71.7536C21.1712 71.6266 20.4193 71.7693 19.786 72.1551C19.1526 72.541 18.681 73.1437 18.4587 73.8513C18.0411 75.0945 18.0666 76.4441 18.5311 77.6706C18.7103 78.1892 19.0333 78.6461 19.4624 78.988C19.8914 79.33 20.4089 79.5429 20.9543 79.602C21.5226 79.7181 22.1123 79.6688 22.6534 79.4598C23.1945 79.2508 23.6642 78.8909 24.0069 78.4229Z" fill="#03934D"/>
<path fill-rule="evenodd" clip-rule="evenodd" d="M78.8783 70.3791C77.012 71.6595 76.3465 73.533 76.3899 75.703C76.3899 75.7596 76.3891 75.817 76.3883 75.8733C76.3867 75.9824 76.3852 76.0873 76.3899 76.1732C76.484 78.5386 77.4171 80.4627 79.6812 81.3597C80.7813 81.8718 82.0034 82.0634 83.2074 81.9124C84.4114 81.7615 85.5485 81.274 86.488 80.5061C88.9402 78.5241 88.8316 73.8874 87.3849 71.8258C86.3881 70.5878 84.9727 69.7572 83.4057 69.4907C81.8387 69.2242 80.2284 69.5402 78.8783 70.3791ZM84.7414 78.6398C85.4192 77.7991 85.7434 76.7278 85.6456 75.6523C85.6377 75.5291 85.6327 75.4069 85.6278 75.2869C85.6191 75.0759 85.6108 74.8721 85.5877 74.683C85.5269 73.9448 85.2123 73.2504 84.6973 72.718C84.1822 72.1856 83.4987 71.8481 82.7629 71.7628C82.0271 71.6776 81.2845 71.8499 80.6613 72.2504C80.0382 72.6509 79.5731 73.2549 79.3451 73.9597C78.9754 75.1411 79.0008 76.4108 79.4175 77.5765C79.6021 78.0907 79.9166 78.5485 80.3303 78.9053C80.7441 79.2621 81.2431 79.5059 81.7789 79.6129C82.3147 79.7199 82.869 79.6865 83.3881 79.516C83.9072 79.3455 84.3734 79.0437 84.7414 78.6398Z" fill="#03934D"/>
<path fill-rule="evenodd" clip-rule="evenodd" d="M3.6278 70.2272C1.53007 71.3628 0.85735 73.3955 0.85735 75.703C0.821656 76.4739 0.909571 77.2456 1.11776 77.9888C1.95685 80.5712 4.05458 81.9528 6.948 81.9094C7.95113 81.9688 8.95161 81.7553 9.84316 81.2917C10.7347 80.8281 11.484 80.1317 12.0115 79.2764C12.6946 78.0653 12.9947 76.6757 12.8723 75.2907C12.7999 73.1206 12.0404 71.2905 10.0657 70.2272C9.08464 69.6691 7.97538 69.3757 6.84673 69.3757C5.71809 69.3757 4.60883 69.6691 3.6278 70.2272ZM9.95618 77.0628C10.0521 76.6081 10.1078 76.1458 10.1226 75.6812C10.1205 75.6368 10.1188 75.5919 10.117 75.5467C10.1063 75.2681 10.095 74.9765 10.0141 74.6902C9.95436 73.9102 9.612 73.1787 9.05124 72.6332C8.49047 72.0877 7.74987 71.7656 6.96846 71.7274C6.18705 71.6892 5.41858 71.9376 4.8073 72.4258C4.19602 72.9141 3.78398 73.6087 3.64852 74.3792C3.50023 75.185 3.50023 76.0111 3.64852 76.8169C3.72533 77.5628 4.06661 78.2566 4.6106 78.7727C5.15458 79.2889 5.86535 79.5932 6.61428 79.6308C7.39462 79.7144 8.1772 79.4943 8.79951 79.0161C9.42182 78.5379 9.83605 77.8384 9.95618 77.0628Z" fill="#03934D"/>
<path fill-rule="evenodd" clip-rule="evenodd" d="M105.114 70.3213V75.7247C105.115 76.0273 105.116 76.3301 105.118 76.6325C105.125 78.1304 105.132 79.6198 105.114 81.0342C105.106 81.5333 105.273 81.6635 105.757 81.6635H110.408C112.919 81.5911 114.532 80.4193 115.255 78.0467C115.722 76.4698 115.722 74.7916 115.255 73.2147C115.028 72.1494 114.428 71.2 113.563 70.5371C112.699 69.8742 111.627 69.5412 110.539 69.5979H105.757C105.215 69.5979 105.114 69.8222 105.114 70.3213ZM107.782 75.6307V75.6597V79.0233C107.775 79.3849 107.883 79.4862 108.238 79.4862H110.502C110.936 79.5054 111.365 79.3813 111.722 79.1329C112.078 78.8846 112.344 78.5258 112.477 78.1118C112.952 76.6252 112.97 75.0298 112.527 73.533C112.421 73.101 112.179 72.7146 111.836 72.4307C111.494 72.1468 111.069 71.9804 110.625 71.9561C110.141 71.8984 109.653 71.8924 109.164 71.8864C108.855 71.8826 108.546 71.8789 108.238 71.8621C107.883 71.8404 107.782 71.9778 107.782 72.3322V75.6307Z" fill="#03934D"/>
<path fill-rule="evenodd" clip-rule="evenodd" d="M30.5432 70.2489V75.5945L30.5215 75.5438V81.0196C30.5215 81.5911 30.6951 81.743 31.2448 81.743C31.9936 81.7221 32.7408 81.723 33.4879 81.7239C34.2924 81.7249 35.0968 81.7259 35.9033 81.6996C38.0589 81.6345 39.6792 80.7158 40.4966 78.6253C41.0209 77.178 41.1434 75.6157 40.851 74.1044C40.3736 71.1314 38.6665 69.6774 35.6718 69.634H31.1436C30.6662 69.6268 30.5432 69.7859 30.5432 70.2489ZM33.2377 74.6392C33.2329 74.9816 33.228 75.3243 33.228 75.6669L33.2715 75.6525V78.9871C33.257 79.3995 33.4017 79.5007 33.7995 79.5007H35.8755C36.3995 79.5181 36.9114 79.3407 37.3122 79.0027C37.713 78.6646 37.9743 78.1901 38.0456 77.6706C38.3045 76.5008 38.3291 75.2912 38.1179 74.1117C38.0752 73.506 37.7983 72.9408 37.346 72.5357C36.8937 72.1307 36.3014 71.9176 35.6947 71.9417C35.4192 71.9063 35.1507 71.9072 34.8789 71.9081C34.594 71.9091 34.3056 71.91 34.002 71.8693C33.4089 71.7898 33.1919 71.9561 33.228 72.5927C33.257 73.2724 33.2473 73.9553 33.2377 74.6392Z" fill="#03934D"/>
<path fill-rule="evenodd" clip-rule="evenodd" d="M52.0681 80.4916C52.5672 81.7502 52.5672 81.7502 53.9561 81.7502C54.2888 81.7502 54.5709 81.7574 54.947 81.7791C55.3232 81.8008 55.4462 81.6996 55.2726 81.3162C55.062 80.895 54.8853 80.461 54.7101 80.0306C54.6567 79.8993 54.6033 79.7682 54.5492 79.638C54.1057 78.5509 53.6605 77.4656 53.2154 76.3804C52.3898 74.3681 51.5646 72.3564 50.7516 70.3356C50.7028 70.1142 50.57 69.9202 50.3811 69.7948C50.1922 69.6693 49.962 69.622 49.7389 69.6629C49.2357 69.7027 48.7302 69.7027 48.2271 69.6629C48.0649 69.641 47.9005 69.6809 47.7664 69.7747C47.6324 69.8686 47.5386 70.0094 47.5037 70.1693C46.9358 71.6325 46.3499 73.0884 45.7637 74.5448C45.5211 75.1476 45.2785 75.7505 45.0371 76.354C44.8515 76.8178 44.6666 77.2823 44.4815 77.7471C44.0318 78.8767 43.5814 80.0078 43.1202 81.1353C42.9104 81.6417 43.0044 81.7864 43.5687 81.7864H45.2686C45.3342 81.7999 45.4019 81.8002 45.4676 81.787C45.5334 81.7738 45.5958 81.7476 45.6511 81.7098C45.7065 81.672 45.7537 81.6234 45.7898 81.5669C45.826 81.5105 45.8505 81.4474 45.8617 81.3813C45.963 81.0739 46.0805 80.7719 46.1981 80.4699C46.3156 80.1679 46.4332 79.8659 46.5344 79.5584C46.5627 79.3947 46.6547 79.2487 46.7902 79.1525C46.9257 79.0563 47.0938 79.0176 47.2578 79.0448H49.898C50.7001 79.0448 51.0979 79.0448 51.3693 79.2301C51.6364 79.4123 51.7811 79.774 52.0681 80.4916ZM49.5704 74.0526C49.4186 73.6536 49.2618 73.2414 49.0972 72.8095C48.9315 73.2491 48.7737 73.6695 48.6208 74.0771C48.3131 74.8971 48.0248 75.6653 47.7301 76.4336C47.5926 76.8242 47.7807 76.8242 48.0556 76.8242H48.0556H50.1244C50.4571 76.8314 50.5873 76.7157 50.4571 76.3757C50.1663 75.6195 49.8787 74.8633 49.5704 74.0526Z" fill="#03934D"/>
<path fill-rule="evenodd" clip-rule="evenodd" d="M97.3909 87.903C97.4213 87.9206 97.4522 87.9384 97.4835 87.9567C97.4445 87.7119 97.456 87.4764 97.4669 87.255C97.4863 86.8617 97.5034 86.5129 97.2303 86.2352C97.1183 86.1363 97.1684 86.0255 97.2165 85.919C97.2212 85.9086 97.2258 85.8982 97.2303 85.8879C97.5848 84.991 97.2303 84.4412 96.3045 84.4412H94.8577C94.5612 84.4268 94.4671 84.5208 94.4671 84.8246V86.9947C94.4671 87.0321 94.4641 87.0709 94.4611 87.1097C94.446 87.3034 94.431 87.4962 94.7926 87.5083C95.2267 87.5227 95.2267 87.3564 95.1833 86.9874C95.1399 86.6185 95.2556 86.4377 95.6607 86.4883C95.8701 86.5064 96.0806 86.5064 96.29 86.4883C96.6372 86.4666 96.818 86.6185 96.7602 86.9657C96.6454 87.4721 96.9654 87.6571 97.3909 87.903ZM95.4455 85.7215H95.8216V85.7143C95.8771 85.7143 95.9293 85.7159 95.9816 85.7175C96.086 85.7207 96.1905 85.7239 96.3207 85.7143C96.516 85.6998 96.6896 85.5913 96.6752 85.3743C96.6607 85.1573 96.4654 85.1573 96.3063 85.1573H96.3063C96.2101 85.1573 96.1035 85.1581 95.9966 85.1589C95.782 85.1605 95.5662 85.1621 95.431 85.1573C95.2285 85.1501 95.1272 85.2296 95.1344 85.4466C95.1417 85.6636 95.2429 85.7215 95.4455 85.7215Z" fill="#040404"/>
<path fill-rule="evenodd" clip-rule="evenodd" d="M71.1159 87.8646C71.1661 87.8941 71.2178 87.9246 71.2702 87.9567C71.2702 87.7689 71.2705 87.5862 71.2708 87.4076C71.2719 86.7127 71.273 86.0797 71.2557 85.4466C71.2609 85.3078 71.2372 85.1695 71.1862 85.0403C71.1352 84.9111 71.058 84.7939 70.9595 84.6961C70.8609 84.5982 70.7432 84.5218 70.6136 84.4717C70.4841 84.4216 70.3456 84.3989 70.2069 84.405H69.4835C69.3404 84.3969 69.1972 84.4187 69.0629 84.4689C68.9287 84.519 68.8063 84.5966 68.7036 84.6966C68.6009 84.7965 68.5201 84.9168 68.4664 85.0496C68.4126 85.1825 68.387 85.3251 68.3912 85.4683V87.0452C68.3912 87.0604 68.3911 87.0758 68.3909 87.0912C68.389 87.2902 68.3868 87.5077 68.7023 87.501C69.0423 87.4937 69.1652 87.4214 69.1146 87.0525C69.064 86.6836 69.2303 86.5678 69.5775 86.6112C69.7652 86.6293 69.9541 86.6293 70.1418 86.6112C70.4239 86.5823 70.6047 86.6619 70.5468 86.9801C70.4382 87.4657 70.7359 87.6409 71.1159 87.8646ZM69.2257 85.8588C69.3595 85.8845 69.497 85.8845 69.6308 85.8588C69.7735 85.8606 69.916 85.8702 70.0576 85.8878C70.3469 85.9095 70.5205 85.8733 70.5205 85.4972C70.5205 85.1699 70.3453 85.1767 70.1568 85.1839C70.1287 85.185 70.1003 85.1861 70.0721 85.1861H69.3487C69.1751 85.1861 69.0811 85.2802 69.0955 85.4321C69.0993 85.4718 69.0957 85.5161 69.092 85.5608C69.0816 85.6867 69.0709 85.8161 69.2257 85.8588Z" fill="#040404"/>
<path fill-rule="evenodd" clip-rule="evenodd" d="M104.58 86.9946C104.501 87.4937 104.812 87.7108 105.304 87.9205C105.304 87.0019 105.296 86.1483 105.282 85.302C105.282 85.2114 105.244 85.1428 105.206 85.0734C105.186 85.0376 105.167 85.0015 105.152 84.962C104.87 84.3212 104.358 84.3589 103.862 84.3955C103.747 84.4039 103.634 84.4123 103.524 84.4123C103.376 84.3935 103.225 84.408 103.083 84.4548C102.941 84.5016 102.812 84.5794 102.704 84.6827C102.595 84.7859 102.512 84.9119 102.459 85.0516C102.405 85.1913 102.384 85.3411 102.396 85.49V87.0525C102.389 87.3201 102.389 87.4937 102.75 87.501C103.112 87.5082 103.155 87.3491 103.112 87.0814C103.047 86.6619 103.257 86.5679 103.618 86.6113C103.806 86.6293 103.995 86.6293 104.182 86.6113C104.465 86.5896 104.638 86.6836 104.58 86.9946ZM104.487 85.1717C104.281 85.1426 104.072 85.1426 103.865 85.1717L103.887 85.1283H103.576C103.551 85.1291 103.526 85.1293 103.502 85.1295C103.305 85.1309 103.127 85.1322 103.127 85.4538C103.127 85.8155 103.366 85.8517 103.59 85.8517H104.314C104.48 85.8517 104.61 85.7577 104.596 85.6058C104.592 85.5629 104.597 85.5143 104.603 85.4653C104.618 85.3406 104.633 85.2133 104.487 85.1717Z" fill="#040404"/>
<path fill-rule="evenodd" clip-rule="evenodd" d="M86.4871 87.0234C86.4003 87.5298 86.7403 87.7034 87.2105 87.9348C87.1932 87.7359 87.2024 87.5421 87.2112 87.3559C87.232 86.919 87.2508 86.5233 86.9211 86.1988C86.8112 86.1163 86.8644 85.9882 86.9134 85.8702C86.916 85.864 86.9186 85.8578 86.9211 85.8516C87.2901 84.9546 86.9284 84.4049 86.0025 84.4049H84.5558C84.2592 84.3904 84.1724 84.4772 84.1724 84.7882V87.0451C84.1724 87.0615 84.1723 87.0777 84.1721 87.0938C84.1703 87.3108 84.1688 87.4873 84.5124 87.5008C84.8813 87.5153 84.9175 87.291 84.8813 87.0306C84.8162 86.5822 84.997 86.4158 85.431 86.4809C85.5969 86.499 85.7643 86.499 85.9302 86.4809C86.3208 86.4592 86.5739 86.5171 86.4871 87.0234ZM85.9711 85.1645C85.8555 85.1818 85.7423 85.1987 85.6698 85.1573C85.6002 85.1573 85.5468 85.1538 85.4972 85.1506C85.423 85.1457 85.3571 85.1414 85.2575 85.1501C85.2287 85.1526 85.1983 85.1529 85.1675 85.1533C85.0201 85.1549 84.8656 85.1566 84.8596 85.396C84.8524 85.6854 85.0043 85.7288 85.243 85.7288C85.3683 85.736 85.4939 85.736 85.6191 85.7288C85.6941 85.7175 85.7822 85.7218 85.8716 85.7262C86.1271 85.7386 86.3931 85.7516 86.3931 85.4032C86.3931 85.1013 86.1784 85.1335 85.9711 85.1645Z" fill="#040404"/>
<path d="M19.1356 85.5334H55.3034C55.6072 85.5334 55.9399 85.4466 56.1497 85.7794C56.2076 86.8138 56.2076 86.8138 55.1732 86.8138H19.2079H18.3978C18.5497 86.3798 18.9548 86.5823 19.2369 86.481C19.519 86.3798 19.9602 86.481 19.5913 85.9313C19.519 85.8083 19.5913 85.7938 19.4177 85.8083C18.5198 85.8806 17.6175 85.8806 16.7196 85.8083C16.5749 85.8083 16.3651 85.8083 16.3796 85.5407L19.1356 85.5334Z" fill="#040404"/>
<path d="M16.3786 85.5407C16.7909 85.7939 17.2321 85.642 17.6661 85.6564C18.4401 85.6564 19.2141 85.6564 20.017 85.6564C19.9519 85.8734 19.7205 85.7143 19.6409 85.8517C19.8217 85.9747 20.1255 86.0253 20.0966 86.3002C20.0677 86.5751 19.7205 86.4738 19.5396 86.5678C19.1707 86.7631 18.7367 86.5678 18.3967 86.7849H15.1272C15.4599 86.4883 15.8505 86.2206 15.8505 85.6709H14.5195V85.5407H16.3786Z" fill="#040404"/>
<path fill-rule="evenodd" clip-rule="evenodd" d="M93.8542 85.801C93.8108 84.6219 93.6083 84.4049 92.2845 84.4049C91.0837 84.4049 90.8016 84.6726 90.7582 85.6491C90.6787 87.1537 91.0548 87.5226 92.2556 87.5226C93.6155 87.5371 93.8976 86.9801 93.8542 85.801ZM92.1657 86.7384C92.1781 86.737 92.1906 86.7355 92.2031 86.7342C92.2717 86.7361 92.3403 86.7406 92.4076 86.7451C92.8506 86.7744 93.2333 86.7997 93.158 86.0397C93.1111 85.5672 93.1001 85.3498 92.9861 85.2498C92.8889 85.1645 92.7169 85.1645 92.384 85.1645C91.9557 85.1645 91.7449 85.1645 91.6347 85.2698C91.5123 85.3868 91.5141 85.6339 91.4798 86.1555C91.4378 86.8206 91.7889 86.781 92.1657 86.7384Z" fill="#040404"/>
<path fill-rule="evenodd" clip-rule="evenodd" d="M61.6875 84.8317V88C61.7922 87.9019 61.9061 87.8313 62.0126 87.7654C62.2592 87.6127 62.4657 87.4848 62.4253 87.0958C62.3675 86.5388 62.5917 86.3942 63.0908 86.4737C63.2353 86.4846 63.3804 86.4846 63.5248 86.4737C63.8104 86.423 64.0742 86.2876 64.2819 86.0851C64.4895 85.8826 64.6315 85.6223 64.6894 85.3381C64.6439 85.0693 64.5021 84.8263 64.2904 84.6546C64.0787 84.4828 63.8117 84.3941 63.5393 84.4049H62.1577C61.8322 84.3832 61.6875 84.4483 61.6875 84.8317ZM63.1247 85.7214H63.1464H63.4358C63.6745 85.7286 63.9276 85.6997 63.9059 85.3887C63.888 85.1315 63.7266 85.1413 63.5445 85.1525C63.5064 85.1548 63.4674 85.1572 63.4285 85.1572C63.3556 85.1572 63.2765 85.1579 63.1955 85.1587C63.0276 85.1604 62.8516 85.1621 62.7052 85.1572C62.4882 85.1499 62.4158 85.2295 62.4158 85.4465C62.4158 85.6635 62.5099 85.7214 62.7124 85.7214H63.1247Z" fill="#040404"/>
<path fill-rule="evenodd" clip-rule="evenodd" d="M77.373 84.7233V87.841C77.4529 87.7935 77.5442 87.7584 77.6337 87.7241C77.885 87.6277 78.1223 87.5366 78.053 87.1899C77.9445 86.5534 78.2338 86.3653 78.8125 86.4666C78.9377 86.4775 79.0635 86.4775 79.1887 86.4666C79.6806 86.4666 80.3605 85.6998 80.2954 85.3237C80.2903 85.2944 80.2855 85.2641 80.2804 85.233C80.2211 84.8653 80.1457 84.3978 79.5721 84.3978H77.6913C77.4454 84.3906 77.373 84.4846 77.373 84.7233ZM79.1906 85.1518C79.0666 85.1711 78.9378 85.1912 78.8482 85.1211C78.7578 85.1974 78.6179 85.1777 78.4813 85.1586C78.2679 85.1286 78.0625 85.0998 78.0669 85.4394C78.0723 85.8536 78.3658 85.7918 78.617 85.7388C78.7036 85.7205 78.7851 85.7033 78.8482 85.707C78.8997 85.7101 78.9614 85.7233 79.0268 85.7373C79.2732 85.79 79.5715 85.8538 79.5715 85.4249C79.5715 85.0926 79.3869 85.1213 79.1906 85.1518Z" fill="#040404"/>
</svg>
